<svg width="68" height="31" viewBox="0 0 68 31" fill="none" xmlns="http://www.w3.org/2000/svg">
<path d="M15.1309 0.981817C17.5629 0.981817 19.2625 1.63127 20.2298 2.93018C21.2247 4.20145 21.4044 6.136 20.7687 8.73382L20.6444 9.27273C20.368 10.3505 19.9949 11.3178 19.5251 12.1745C19.0829 13.0036 18.5855 13.7084 18.0327 14.2887C17.48 14.8691 16.8996 15.3251 16.2916 15.6567C15.7113 15.9607 15.1585 16.1404 14.6335 16.1956L14.5505 16.6102C15.048 16.6655 15.504 16.8727 15.9185 17.232C16.3331 17.5636 16.6647 18.0335 16.9135 18.6415C17.1898 19.2495 17.3418 19.9818 17.3695 20.8385C17.4247 21.6953 17.3142 22.6487 17.0378 23.6989L16.9549 24.1135C16.6509 25.3571 16.4022 26.4487 16.2087 27.3884C16.0429 28.328 15.9324 29.1985 15.8771 30H10.1149C10.1425 29.1156 10.2531 28.1898 10.4465 27.2225C10.64 26.2553 10.8887 25.2051 11.1927 24.072L11.8975 21.0873C12.0909 20.3411 12.0909 19.8022 11.8975 19.4705C11.7316 19.1113 11.3309 18.9316 10.6953 18.9316H9.32727L6.54982 30.0415H0.746182L8.00073 0.981817H15.1309ZM10.5709 13.8742H11.8975C12.5331 13.8742 13.0444 13.6807 13.4313 13.2938C13.8182 12.8793 14.0945 12.3127 14.2604 11.5942L15.0895 8.23636C15.2829 7.46254 15.2829 6.90982 15.0895 6.57818C14.9236 6.21891 14.5229 6.03927 13.8873 6.03927H12.5193L10.5709 13.8742ZM37.6754 0.940363L33.5714 29.9585H27.7677L28.887 22.7869H26.3583L23.9539 29.9585H18.1503L28.5968 0.940363H37.6754ZM29.7161 17.7295L30.8354 10.8065H30.4208L28.0994 17.7295H29.7161ZM57.9832 0.981817L52.5112 22.8284C51.8756 25.3709 50.7425 27.2778 49.112 28.5491C47.4814 29.7927 45.5054 30.4145 43.184 30.4145C40.8902 30.4145 39.2596 29.7927 38.2923 28.5491C37.3527 27.3055 37.2007 25.3985 37.8363 22.8284L39.3287 16.8175H45.1323L43.5156 23.2429C43.3222 24.0444 43.336 24.6109 43.5571 24.9425C43.7782 25.2465 44.096 25.3985 44.5105 25.3985C44.9251 25.3985 45.3258 25.2465 45.7127 24.9425C46.0996 24.6109 46.4036 24.0444 46.6247 23.2429L52.1796 0.981817H57.9832ZM67.3057 0.981817L60.0926 30H54.2889L61.502 0.981817H67.3057Z" fill="white"/>
</svg>
