<svg width="12" height="14" viewBox="0 0 12 16" fill="none" xmlns="http://www.w3.org/2000/svg">
<path d="M5.61943 7.64083C6.13765 7.58868 6.61808 7.46698 7.06073 7.27574C7.50337 7.07581 7.88664 6.82807 8.21053 6.53252C8.54521 6.22828 8.80432 5.88492 8.98785 5.50244C9.18219 5.11997 9.27935 4.71576 9.27935 4.28982C9.27935 3.86388 9.18219 3.45967 8.98785 3.0772C8.80432 2.68603 8.54521 2.34267 8.21053 2.04712C7.88664 1.74287 7.50337 1.49513 7.06073 1.3039C6.61808 1.10397 6.13765 0.977922 5.61943 0.925766V1.92977H6.73684V2.82946H5.61943V7.64083ZM12 13.039H10.413L4.8583 8.5666C4.44804 8.54922 4.04319 8.50141 3.64373 8.42317C3.25506 8.33625 2.88259 8.21455 2.52632 8.05808L3.06073 7.2627C3.52497 7.46264 4.0108 7.58868 4.51822 7.64083V2.82946H1.11741V13.039H0V1.92977H4.51822V0H5.06883C5.80297 0 6.49393 0.113004 7.1417 0.339013C7.78947 0.565021 8.35088 0.87361 8.82591 1.26478C9.31174 1.64726 9.69501 2.09927 9.97571 2.62083C10.2564 3.14239 10.3968 3.69872 10.3968 4.28982C10.3968 4.79399 10.2942 5.27644 10.0891 5.73715C9.88394 6.18916 9.59784 6.59772 9.23077 6.96281C8.8637 7.3279 8.42645 7.64083 7.91903 7.90161C7.4224 8.1537 6.88259 8.33625 6.2996 8.44925L12 13.039Z" fill="white"/>
<path d="M11.9859 16H10.8847V2.96103H11.9859V16Z" fill="white"/>
</svg>
