<svg width="41" height="63" viewBox="0 0 41 63" fill="none" xmlns="http://www.w3.org/2000/svg">
<path d="M19.221 30.198C20.597 30.026 21.8727 29.6247 23.048 28.994C24.2233 28.3347 25.241 27.5177 26.101 26.543C26.9897 25.5397 27.6777 24.4073 28.165 23.146C28.681 21.8847 28.939 20.5517 28.939 19.147C28.939 17.7423 28.681 16.4093 28.165 15.148C27.6777 13.858 26.9897 12.7257 26.101 11.751C25.241 10.7477 24.2233 9.93067 23.048 9.3C21.8727 8.64067 20.597 8.225 19.221 8.053V11.364H22.188V14.331H19.221V30.198ZM36.163 48H31.949L17.2 33.251C16.1107 33.1937 15.0357 33.036 13.975 32.778C12.943 32.4913 11.954 32.09 11.008 31.574L12.427 28.951C13.6597 29.6103 14.9497 30.026 16.297 30.198V14.331H7.267V48H4.3V11.364H16.297V5H17.759C19.7083 5 21.543 5.37267 23.263 6.118C24.983 6.86333 26.4737 7.881 27.735 9.171C29.025 10.4323 30.0427 11.923 30.788 13.643C31.5333 15.363 31.906 17.1977 31.906 19.147C31.906 20.8097 31.6337 22.4007 31.089 23.92C30.5443 25.4107 29.7847 26.758 28.81 27.962C27.8353 29.166 26.6743 30.198 25.327 31.058C24.0083 31.8893 22.575 32.4913 21.027 32.864L36.163 48Z" fill="white"/>
<path d="M35.8907 58.75H32.9667V15.75H35.8907V58.75Z" fill="white"/>
</svg>
